<?xml version="1.0" encoding="utf-8"?>
<!-- Generator: Adobe Illustrator 14.0.0, SVG Export Plug-In . SVG Version: 6.00 Build 43363)  -->
<!DOCTYPE svg PUBLIC "-//W3C//DTD SVG 1.1//EN" "http://www.w3.org/Graphics/SVG/1.1/DTD/svg11.dtd">
<svg version="1.1" id="Layer_1" xmlns="http://www.w3.org/2000/svg" xmlns:xlink="http://www.w3.org/1999/xlink" x="0px" y="0px"
	 width="12.485px" height="15.961px" viewBox="0 0 12.485 15.961" enable-background="new 0 0 12.485 15.961" xml:space="preserve">
<g>
	<path fill="#D5422F" d="M11.077,13.632H2.17V1.323h6.268l2.639,3.392V13.632L11.077,13.632z M3.738,12.065h5.771V5.253L7.67,2.891
		H3.738V12.065L3.738,12.065z"/>
</g>
<g>
	<rect x="4.766" y="7.763" fill="#D5422F" width="0.68" height="3.416"/>
	<rect x="6.286" y="7.763" fill="#D5422F" width="0.68" height="3.416"/>
	<rect x="7.805" y="7.763" fill="#D5422F" width="0.68" height="3.416"/>
</g>
<polygon fill="#FFFFFF" points="10.307,8.261 7.44,5.392 5.374,7.457 3.309,5.392 0.671,8.046 2.919,10.34 0.624,12.62 
	3.309,15.259 5.374,13.194 7.44,15.259 10.307,12.391 8.243,10.325 "/>
<polygon fill="#D5422F" points="9.104,7.83 7.932,6.658 5.374,9.216 2.817,6.658 1.645,7.83 4.203,10.388 1.864,12.725 
	3.036,13.896 5.374,11.559 7.713,13.896 8.885,12.725 6.545,10.388 "/>
</svg>
