<?xml version="1.0" encoding="utf-8"?>
<!-- Generator: Adobe Illustrator 14.0.0, SVG Export Plug-In . SVG Version: 6.00 Build 43363)  -->
<!DOCTYPE svg PUBLIC "-//W3C//DTD SVG 1.1//EN" "http://www.w3.org/Graphics/SVG/1.1/DTD/svg11.dtd">
<svg version="1.1" id="Layer_1" xmlns="http://www.w3.org/2000/svg" xmlns:xlink="http://www.w3.org/1999/xlink" x="0px" y="0px"
	 width="15.704px" height="15.961px" viewBox="0 0 15.704 15.961" enable-background="new 0 0 15.704 15.961" xml:space="preserve">
<g>
	<path fill="#11D500" d="M2.539,12.607c-0.437,0.437-0.437,1.143,0,1.578c0.218,0.219,0.506,0.328,0.789,0.328
		c0.287,0,0.574-0.109,0.793-0.328l3.668-3.67l-1.578-1.58L2.539,12.607z"/>
	<path fill="#11D500" d="M11.909,5.8l1.598-0.826l0.836-1.619L13.42,2.446l-1.621,0.837L10.976,4.88L9.028,6.827l0.936,0.921
		L11.909,5.8z"/>
	<path fill="#11D500" d="M12.061,10.044l-0.15-0.013c-0.272,0-0.531,0.054-0.773,0.146L6.548,5.589
		c0.091-0.244,0.146-0.502,0.146-0.775l-0.015-0.15C6.6,3.5,5.643,2.58,4.459,2.58C4.114,2.58,3.79,2.663,3.5,2.803L4.983,4.29
		c0.079,0.077,0.134,0.171,0.168,0.266C5.25,4.822,5.199,5.131,4.983,5.341C4.837,5.488,4.649,5.56,4.459,5.56
		c-0.091,0-0.177-0.019-0.258-0.052C4.104,5.472,4.01,5.421,3.932,5.341L2.449,3.857C2.307,4.148,2.223,4.472,2.223,4.814
		c0,1.185,0.924,2.142,2.085,2.222l0.151,0.015c0.273,0,0.531-0.058,0.772-0.146l4.587,4.588c-0.088,0.239-0.146,0.498-0.146,0.771
		l0.015,0.152c0.08,1.161,1.037,2.084,2.224,2.084c0.342,0,0.666-0.083,0.957-0.225l-1.484-1.484
		c-0.079-0.076-0.131-0.171-0.172-0.266c-0.096-0.267-0.043-0.575,0.172-0.787c0.146-0.146,0.336-0.217,0.527-0.217
		c0.088,0,0.176,0.018,0.258,0.051c0.096,0.035,0.188,0.087,0.266,0.166l1.49,1.484c0.137-0.289,0.22-0.615,0.22-0.959
		C14.144,11.083,13.224,10.125,12.061,10.044L12.061,10.044z"/>
</g>
</svg>
