<?xml version="1.0" encoding="utf-8"?>
<!-- Generator: Adobe Illustrator 14.0.0, SVG Export Plug-In . SVG Version: 6.00 Build 43363)  -->
<!DOCTYPE svg PUBLIC "-//W3C//DTD SVG 1.1//EN" "http://www.w3.org/Graphics/SVG/1.1/DTD/svg11.dtd">
<svg version="1.1" id="Layer_1" xmlns="http://www.w3.org/2000/svg" xmlns:xlink="http://www.w3.org/1999/xlink" x="0px" y="0px"
	 width="15.704px" height="15.961px" viewBox="0 0 15.704 15.961" enable-background="new 0 0 15.704 15.961" xml:space="preserve">
<g>
	<path fill="#333333" d="M2.539,12.607c-0.437,0.437-0.437,1.143,0,1.578c0.218,0.219,0.506,0.328,0.789,0.328
		c0.287,0,0.574-0.109,0.793-0.328l3.668-3.67L6.211,8.936L2.539,12.607z M2.539,12.607"/>
	<path fill="#333333" d="M11.908,5.8l1.598-0.826l0.836-1.619L13.42,2.446L11.8,3.283L10.976,4.88L9.028,6.827l0.935,0.921
		L11.908,5.8z M11.908,5.8"/>
	<path fill="#333333" d="M12.061,10.044l-0.15-0.013c-0.273,0-0.531,0.054-0.774,0.146L6.548,5.589
		c0.091-0.244,0.146-0.502,0.146-0.775l-0.015-0.15C6.6,3.5,5.643,2.58,4.459,2.58C4.114,2.58,3.79,2.663,3.5,2.803L4.983,4.29
		c0.079,0.077,0.134,0.171,0.168,0.266C5.25,4.822,5.199,5.131,4.983,5.341C4.837,5.488,4.649,5.56,4.459,5.56
		c-0.091,0-0.177-0.019-0.258-0.052C4.104,5.472,4.01,5.421,3.932,5.341L2.449,3.857C2.307,4.148,2.223,4.472,2.223,4.814
		c0,1.185,0.924,2.142,2.085,2.222l0.151,0.015c0.273,0,0.531-0.058,0.772-0.146l4.587,4.588c-0.088,0.24-0.145,0.498-0.145,0.771
		l0.014,0.152c0.08,1.161,1.037,2.084,2.223,2.084c0.342,0,0.666-0.083,0.957-0.225l-1.484-1.484
		c-0.079-0.076-0.131-0.171-0.171-0.266c-0.097-0.266-0.043-0.575,0.171-0.786c0.146-0.146,0.336-0.218,0.527-0.218
		c0.088,0,0.176,0.018,0.259,0.051c0.095,0.036,0.188,0.087,0.265,0.167l1.49,1.484c0.137-0.29,0.22-0.616,0.22-0.96
		C14.144,11.083,13.224,10.125,12.061,10.044L12.061,10.044z M12.061,10.044"/>
</g>
<g>
	<path fill="#333333" d="M32.086,10.828L28.85,7.591l0.846-0.846c0.104-0.105,0.162-0.244,0.162-0.393
		c0-0.146-0.059-0.287-0.162-0.391l-2.721-2.721c-0.216-0.217-0.566-0.217-0.783,0l-0.846,0.846l-3.237-3.238
		c-0.216-0.215-0.567-0.215-0.784,0L18.603,3.57c-0.216,0.216-0.216,0.567,0,0.785l3.238,3.237l-0.847,0.846
		c-0.104,0.104-0.161,0.244-0.161,0.393c0,0.146,0.058,0.287,0.161,0.391l2.723,2.721c0.107,0.108,0.248,0.162,0.391,0.162
		c0.142,0,0.283-0.054,0.393-0.162l0.846-0.846l3.237,3.236c0.108,0.109,0.249,0.162,0.391,0.162s0.284-0.053,0.392-0.162
		l2.721-2.72c0.104-0.104,0.163-0.244,0.163-0.392S32.19,10.932,32.086,10.828L32.086,10.828z M19.777,3.962l1.939-1.938
		l2.844,2.846l-1.936,1.937L19.777,3.962z M24.107,10.765L22.17,8.83l0.846-0.846V7.982l0.919-0.919l2.648-2.646l1.937,1.937
		L27.674,7.2l-1.359,1.36L24.107,10.765z M28.974,13.158l-2.846-2.846l1.938-1.937l2.846,2.845L28.974,13.158z M28.974,13.158"/>
	<path fill="#333333" d="M22.645,14.353c-1.133,0-2.195-0.441-2.996-1.24c-0.8-0.801-1.24-1.863-1.24-2.996
		c0-0.306-0.248-0.553-0.553-0.553c-0.307,0-0.555,0.247-0.555,0.553c0,1.429,0.557,2.77,1.564,3.779
		c1.01,1.01,2.352,1.564,3.779,1.564l0,0c0.306,0,0.553-0.247,0.553-0.555C23.197,14.601,22.95,14.353,22.645,14.353L22.645,14.353z
		 M22.645,14.353"/>
	<path fill="#333333" d="M22.422,13.289c0.306,0,0.555-0.248,0.555-0.555s-0.249-0.555-0.555-0.555c-0.49,0-0.953-0.189-1.301-0.539
		c-0.348-0.347-0.54-0.809-0.54-1.301c0-0.307-0.247-0.555-0.554-0.555c-0.306,0-0.553,0.248-0.553,0.555
		c0,0.787,0.307,1.528,0.863,2.086C20.895,12.981,21.636,13.289,22.422,13.289L22.422,13.289z M22.422,13.289"/>
</g>
<g>
	<g>
		<path fill="#333333" d="M41.664,13.499c-1.352,0-2.684-0.454-3.75-1.278l-0.698-0.629c-2.299-2.461-2.233-6.195,0.11-8.54
			c0.389-0.39,1.074-0.392,1.465,0.003l2.881,2.882l0.092-0.091c0.389-0.387,1.068-0.389,1.459-0.002
			c0.402,0.408,0.402,1.063,0.002,1.463l-0.09,0.09l2.848,2.85c0.193,0.191,0.303,0.451,0.303,0.729s-0.107,0.538-0.305,0.734
			c-0.805,0.805-1.816,1.368-2.922,1.628l-0.867,0.138C41.985,13.492,41.824,13.499,41.664,13.499L41.664,13.499z M38.061,4.087
			c-1.722,1.875-1.723,4.74,0.029,6.617l0.623,0.562c0.908,0.699,2.133,1.071,3.332,0.971l0.774-0.122
			c0.771-0.182,1.513-0.577,2.128-1.142l-3.275-3.275v0.001L38.061,4.087L38.061,4.087z"/>
	</g>
	<path fill="#333333" d="M45.385,7.859c0.035,0.008,0.071,0.014,0.107,0.014c0.208,0,0.396-0.142,0.447-0.355
		C46.227,6.314,45.877,5.07,45,4.193c-0.876-0.875-2.117-1.226-3.325-0.937c-0.246,0.059-0.399,0.305-0.341,0.553
		c0.061,0.248,0.309,0.399,0.555,0.338c0.894-0.211,1.814,0.048,2.462,0.696C45,5.492,45.26,6.41,45.045,7.307
		C44.986,7.552,45.139,7.799,45.385,7.859L45.385,7.859z M45.385,7.859"/>
	<path fill="#333333" d="M46.66,2.47c-1.321-1.319-3.139-1.925-4.989-1.661c-0.267,0.037-0.453,0.286-0.413,0.554
		c0.036,0.268,0.284,0.455,0.551,0.415c1.543-0.221,3.059,0.282,4.158,1.381c1.1,1.102,1.604,2.615,1.383,4.158
		c-0.039,0.267,0.148,0.516,0.416,0.555c0.022,0.004,0.045,0.006,0.07,0.006c0.238,0,0.448-0.179,0.482-0.42
		C48.584,5.606,47.978,3.789,46.66,2.47L46.66,2.47z M46.66,2.47"/>
	<polyline fill="#333333" points="37.162,10.43 35.508,12.892 39.664,12.892 	"/>
</g>
<g>
	<g>
		<path fill="#333333" d="M60.666,12.939h-1.285l-0.889-2.793h-3.921l-0.889,2.793h-1.224L55.76,2.915h1.607L60.666,12.939z
			 M58.121,9.001l-1.59-4.921l-1.595,4.921H58.121z"/>
	</g>
</g>
<g>
	<g>
		<path fill="#333333" d="M70.578,12.908h-5.973V2.884h5.973v1.185H65.81v2.746h4.769V8H65.81v3.723h4.769V12.908z"/>
	</g>
</g>
<g>
	<path fill="#333333" d="M-14.73,14.019h-8.905V1.71h6.266l2.64,3.392V14.019L-14.73,14.019z M-22.069,12.453h5.772V5.64
		l-1.839-2.362h-3.934V12.453L-22.069,12.453z"/>
</g>
<g>
	<g>
		<path fill="#333333" d="M-1.941,14.365h-8.438V3.363h1.582V1.528h5.092v1.835h1.764V14.365L-1.941,14.365z M-8.813,12.798h5.305
			V4.931h-1.764V3.095H-7.23v1.835h-1.582V12.798L-8.813,12.798z"/>
	</g>
	<rect x="-7.971" y="10.034" fill="#333333" width="3.486" height="1.487"/>
	<rect x="-7.971" y="7.386" fill="#333333" width="3.486" height="1.488"/>
</g>
<rect x="-20.932" y="8.15" fill="#333333" width="0.738" height="3.416"/>
<rect x="-19.43" y="8.15" fill="#333333" width="0.796" height="3.416"/>
<rect x="-17.93" y="8.15" fill="#333333" width="0.738" height="3.416"/>
</svg>
