<?xml version="1.0" encoding="utf-8"?>
<!-- Generator: Adobe Illustrator 14.0.0, SVG Export Plug-In . SVG Version: 6.00 Build 43363)  -->
<!DOCTYPE svg PUBLIC "-//W3C//DTD SVG 1.1//EN" "http://www.w3.org/Graphics/SVG/1.1/DTD/svg11.dtd">
<svg version="1.1" id="Layer_1" xmlns="http://www.w3.org/2000/svg" xmlns:xlink="http://www.w3.org/1999/xlink" x="0px" y="0px"
	 width="18.148px" height="15.961px" viewBox="0 0 18.148 15.961" enable-background="new 0 0 18.148 15.961" xml:space="preserve">
<g>
	<path fill="#11D500" d="M16.382,10.828l-3.235-3.236l0.846-0.846c0.104-0.105,0.162-0.244,0.162-0.393
		c0-0.146-0.059-0.287-0.162-0.391l-2.721-2.721c-0.216-0.217-0.566-0.217-0.783,0L9.642,4.087L6.404,0.849
		c-0.216-0.215-0.567-0.215-0.784,0L2.898,3.57c-0.216,0.216-0.216,0.567,0,0.785l3.238,3.237L5.29,8.437
		C5.187,8.541,5.129,8.682,5.129,8.83c0,0.146,0.059,0.287,0.161,0.391l2.724,2.721c0.106,0.108,0.248,0.162,0.391,0.162
		c0.142,0,0.283-0.054,0.393-0.162l0.847-0.846l3.236,3.236c0.108,0.109,0.249,0.162,0.392,0.162c0.142,0,0.284-0.053,0.392-0.162
		l2.721-2.721c0.104-0.104,0.163-0.243,0.163-0.391C16.547,11.072,16.486,10.932,16.382,10.828L16.382,10.828z M4.073,3.962
		l1.939-1.938L8.856,4.87L6.921,6.807L4.073,3.962z M8.403,10.766L6.466,8.83l0.847-0.846V7.982L8.23,7.063l2.647-2.646l1.938,1.937
		L11.97,7.2l-1.36,1.36L8.403,10.766z M13.27,13.158l-2.847-2.846l1.938-1.938l2.846,2.846L13.27,13.158z"/>
	<path fill="#11D500" d="M6.94,14.354c-1.133,0-2.195-0.441-2.996-1.24c-0.8-0.801-1.24-1.863-1.24-2.996
		c0-0.307-0.248-0.553-0.553-0.553c-0.308,0-0.555,0.246-0.555,0.553c0,1.429,0.557,2.77,1.563,3.779
		c1.01,1.01,2.353,1.563,3.779,1.563l0,0c0.306,0,0.553-0.247,0.553-0.556C7.493,14.602,7.246,14.354,6.94,14.354L6.94,14.354z"/>
	<path fill="#11D500" d="M6.718,13.289c0.307,0,0.556-0.248,0.556-0.555S7.024,12.18,6.718,12.18c-0.489,0-0.952-0.189-1.301-0.539
		c-0.348-0.348-0.54-0.81-0.54-1.302c0-0.307-0.247-0.555-0.554-0.555c-0.306,0-0.553,0.248-0.553,0.555
		c0,0.787,0.307,1.528,0.862,2.086C5.19,12.98,5.932,13.289,6.718,13.289L6.718,13.289z"/>
</g>
</svg>
