<?xml version="1.0" encoding="utf-8"?>
<!-- Generator: Adobe Illustrator 14.0.0, SVG Export Plug-In . SVG Version: 6.00 Build 43363)  -->
<!DOCTYPE svg PUBLIC "-//W3C//DTD SVG 1.1//EN" "http://www.w3.org/Graphics/SVG/1.1/DTD/svg11.dtd">
<svg version="1.1" id="Layer_1" xmlns="http://www.w3.org/2000/svg" xmlns:xlink="http://www.w3.org/1999/xlink" x="0px" y="0px"
	 width="16.732px" height="15.961px" viewBox="0 0 16.732 15.961" enable-background="new 0 0 16.732 15.961" xml:space="preserve">
<g>
	<g>
		<path fill="#11D500" d="M7.812,13.499c-1.352,0-2.684-0.454-3.75-1.278l-0.697-0.629C1.064,9.13,1.13,5.396,3.474,3.051
			c0.389-0.39,1.074-0.392,1.465,0.003L7.82,5.936l0.093-0.091C8.3,5.458,8.979,5.457,9.37,5.843
			c0.401,0.408,0.401,1.063,0.002,1.463l-0.09,0.09l2.848,2.85c0.193,0.191,0.303,0.451,0.303,0.729
			c0,0.278-0.106,0.539-0.305,0.734c-0.805,0.805-1.816,1.368-2.922,1.628l-0.867,0.138C8.133,13.492,7.972,13.499,7.812,13.499
			L7.812,13.499z M4.208,4.087c-1.723,1.875-1.724,4.74,0.028,6.617l0.623,0.562c0.908,0.699,2.134,1.071,3.332,0.971l0.774-0.121
			c0.771-0.182,1.513-0.577,2.128-1.143L7.819,7.697v0.001L4.208,4.087L4.208,4.087z"/>
	</g>
	<path fill="#11D500" d="M11.532,7.859c0.034,0.008,0.07,0.014,0.106,0.014c0.208,0,0.396-0.142,0.447-0.355
		c0.287-1.203-0.063-2.447-0.939-3.324C10.271,3.318,9.03,2.967,7.822,3.256C7.576,3.315,7.423,3.561,7.481,3.809
		c0.062,0.248,0.31,0.399,0.556,0.338C8.93,3.936,9.85,4.195,10.498,4.843c0.648,0.648,0.909,1.566,0.693,2.463
		C11.134,7.552,11.286,7.799,11.532,7.859L11.532,7.859z"/>
	<path fill="#11D500" d="M12.808,2.47c-1.322-1.319-3.139-1.925-4.99-1.66C7.552,0.847,7.365,1.096,7.405,1.364
		c0.036,0.268,0.284,0.455,0.552,0.415c1.543-0.221,3.059,0.282,4.157,1.381c1.101,1.102,1.604,2.615,1.384,4.158
		c-0.039,0.267,0.147,0.516,0.416,0.555c0.021,0.004,0.045,0.006,0.069,0.006c0.238,0,0.448-0.179,0.482-0.42
		C14.731,5.606,14.125,3.789,12.808,2.47L12.808,2.47z"/>
	<polyline fill="#11D500" points="3.31,10.43 1.655,12.893 5.812,12.893 	"/>
</g>
</svg>
