<?xml version="1.0" encoding="utf-8"?>
<!-- Generator: Adobe Illustrator 14.0.0, SVG Export Plug-In . SVG Version: 6.00 Build 43363)  -->
<!DOCTYPE svg PUBLIC "-//W3C//DTD SVG 1.1//EN" "http://www.w3.org/Graphics/SVG/1.1/DTD/svg11.dtd">
<svg version="1.1" id="Layer_1" xmlns="http://www.w3.org/2000/svg" xmlns:xlink="http://www.w3.org/1999/xlink" x="0px" y="0px"
	 width="16.733px" height="15.961px" viewBox="0 0 16.733 15.961" enable-background="new 0 0 16.733 15.961" xml:space="preserve">
<g>
	<path fill="#333333" d="M-31.313,12.607c-0.437,0.437-0.437,1.143,0,1.578c0.218,0.219,0.506,0.328,0.789,0.328
		c0.287,0,0.574-0.109,0.793-0.328l3.668-3.67l-1.578-1.579L-31.313,12.607z M-31.313,12.607"/>
	<path fill="#333333" d="M-21.944,5.8l1.598-0.826l0.836-1.619l-0.922-0.909l-1.62,0.837l-0.824,1.597l-1.947,1.946l0.935,0.921
		L-21.944,5.8z M-21.944,5.8"/>
	<path fill="#333333" d="M-21.792,10.044l-0.15-0.013c-0.273,0-0.531,0.054-0.774,0.146l-4.588-4.588
		c0.091-0.244,0.146-0.502,0.146-0.775l-0.015-0.15C-27.253,3.5-28.21,2.58-29.394,2.58c-0.345,0-0.669,0.083-0.959,0.223
		l1.483,1.487c0.079,0.077,0.134,0.171,0.168,0.266c0.099,0.266,0.048,0.575-0.168,0.786c-0.146,0.146-0.334,0.219-0.524,0.219
		c-0.091,0-0.177-0.019-0.258-0.052c-0.098-0.036-0.191-0.087-0.27-0.167l-1.482-1.484c-0.143,0.291-0.227,0.614-0.227,0.957
		c0,1.185,0.924,2.142,2.085,2.222l0.151,0.015c0.273,0,0.531-0.058,0.772-0.146l4.587,4.588c-0.088,0.24-0.145,0.498-0.145,0.771
		l0.014,0.152c0.08,1.161,1.037,2.084,2.223,2.084c0.342,0,0.666-0.083,0.957-0.225l-1.484-1.484
		c-0.079-0.076-0.131-0.171-0.171-0.266c-0.097-0.266-0.043-0.575,0.171-0.786c0.146-0.146,0.336-0.218,0.527-0.218
		c0.088,0,0.176,0.018,0.259,0.051c0.095,0.036,0.188,0.087,0.265,0.167l1.49,1.484c0.137-0.29,0.22-0.616,0.22-0.96
		C-19.709,11.083-20.629,10.125-21.792,10.044L-21.792,10.044z M-21.792,10.044"/>
</g>
<g>
	<path fill="#333333" d="M-1.767,10.828l-3.236-3.236l0.846-0.846c0.104-0.105,0.162-0.244,0.162-0.393
		c0-0.146-0.059-0.287-0.162-0.391l-2.721-2.721c-0.216-0.217-0.566-0.217-0.783,0l-0.846,0.846l-3.237-3.238
		c-0.216-0.215-0.567-0.215-0.784,0L-15.25,3.57c-0.216,0.216-0.216,0.567,0,0.785l3.238,3.237l-0.847,0.846
		c-0.104,0.104-0.161,0.244-0.161,0.393c0,0.146,0.058,0.287,0.161,0.391l2.723,2.721c0.107,0.108,0.248,0.162,0.391,0.162
		c0.142,0,0.283-0.054,0.393-0.162l0.846-0.846l3.237,3.236c0.108,0.109,0.249,0.162,0.391,0.162s0.284-0.053,0.392-0.162
		l2.721-2.72c0.104-0.104,0.163-0.244,0.163-0.392S-1.662,10.932-1.767,10.828L-1.767,10.828z M-14.075,3.962l1.939-1.938
		l2.844,2.846l-1.936,1.937L-14.075,3.962z M-9.745,10.765l-1.938-1.936l0.846-0.846V7.982l0.919-0.919l2.648-2.646l1.937,1.937
		L-6.179,7.2l-1.359,1.36L-9.745,10.765z M-4.879,13.158l-2.846-2.846l1.938-1.937l2.846,2.845L-4.879,13.158z M-4.879,13.158"/>
	<path fill="#333333" d="M-11.208,14.353c-1.133,0-2.195-0.441-2.996-1.24c-0.8-0.801-1.24-1.863-1.24-2.996
		c0-0.306-0.248-0.553-0.553-0.553c-0.307,0-0.555,0.247-0.555,0.553c0,1.429,0.557,2.77,1.564,3.779
		c1.01,1.01,2.352,1.564,3.779,1.564l0,0c0.306,0,0.553-0.247,0.553-0.555C-10.655,14.601-10.902,14.353-11.208,14.353
		L-11.208,14.353z M-11.208,14.353"/>
	<path fill="#333333" d="M-11.431,13.289c0.306,0,0.555-0.248,0.555-0.555s-0.249-0.555-0.555-0.555
		c-0.49,0-0.953-0.189-1.301-0.539c-0.348-0.347-0.54-0.809-0.54-1.301c0-0.307-0.247-0.555-0.554-0.555
		c-0.306,0-0.553,0.248-0.553,0.555c0,0.787,0.307,1.528,0.863,2.086C-12.958,12.981-12.217,13.289-11.431,13.289L-11.431,13.289z
		 M-11.431,13.289"/>
</g>
<g>
	<g>
		<path fill="#333333" d="M7.812,13.499c-1.352,0-2.684-0.454-3.75-1.278l-0.698-0.629C1.064,9.13,1.13,5.396,3.474,3.051
			c0.389-0.39,1.074-0.392,1.465,0.003l2.881,2.882l0.092-0.091C8.3,5.458,8.979,5.457,9.37,5.843
			c0.402,0.408,0.402,1.063,0.002,1.463l-0.09,0.09l2.848,2.85c0.193,0.191,0.303,0.451,0.303,0.729s-0.107,0.538-0.305,0.734
			c-0.805,0.805-1.816,1.368-2.922,1.628l-0.867,0.138C8.133,13.492,7.972,13.499,7.812,13.499L7.812,13.499z M4.208,4.087
			c-1.722,1.875-1.723,4.74,0.029,6.617l0.623,0.562c0.908,0.699,2.133,1.071,3.332,0.971l0.774-0.122
			c0.771-0.182,1.513-0.577,2.128-1.142L7.819,7.697v0.001L4.208,4.087L4.208,4.087z"/>
	</g>
	<path fill="#333333" d="M11.532,7.859c0.035,0.008,0.071,0.014,0.107,0.014c0.208,0,0.396-0.142,0.447-0.355
		c0.287-1.203-0.063-2.447-0.939-3.324C10.271,3.318,9.03,2.967,7.822,3.256C7.576,3.315,7.423,3.561,7.481,3.809
		C7.542,4.057,7.79,4.208,8.036,4.147c0.894-0.211,1.814,0.048,2.462,0.696c0.649,0.648,0.909,1.566,0.694,2.463
		C11.134,7.552,11.286,7.799,11.532,7.859L11.532,7.859z M11.532,7.859"/>
	<path fill="#333333" d="M12.808,2.47C11.486,1.151,9.669,0.545,7.818,0.81C7.552,0.847,7.365,1.096,7.405,1.364
		c0.036,0.268,0.284,0.455,0.551,0.415c1.543-0.221,3.059,0.282,4.158,1.381c1.1,1.102,1.604,2.615,1.383,4.158
		c-0.039,0.267,0.148,0.516,0.416,0.555c0.022,0.004,0.045,0.006,0.07,0.006c0.238,0,0.448-0.179,0.482-0.42
		C14.731,5.606,14.125,3.789,12.808,2.47L12.808,2.47z M12.808,2.47"/>
	<polyline fill="#333333" points="3.31,10.43 1.655,12.892 5.812,12.892 	"/>
</g>
<g>
	<g>
		<path fill="#333333" d="M26.813,12.939h-1.285l-0.889-2.793h-3.921l-0.889,2.793h-1.224l3.301-10.024h1.607L26.813,12.939z
			 M24.269,9.001l-1.59-4.921l-1.595,4.921H24.269z"/>
	</g>
</g>
<g>
	<g>
		<path fill="#333333" d="M36.726,12.908h-5.973V2.884h5.973v1.185h-4.769v2.746h4.769V8h-4.769v3.723h4.769V12.908z"/>
	</g>
</g>
<g>
	<path fill="#333333" d="M-48.583,14.019h-8.905V1.71h6.266l2.64,3.392V14.019L-48.583,14.019z M-55.922,12.453h5.772V5.64
		l-1.839-2.362h-3.934V12.453L-55.922,12.453z"/>
</g>
<g>
	<g>
		<path fill="#333333" d="M-35.794,14.365h-8.438V3.363h1.582V1.528h5.092v1.835h1.764V14.365L-35.794,14.365z M-42.665,12.798
			h5.305V4.931h-1.764V3.095h-1.959v1.835h-1.582V12.798L-42.665,12.798z"/>
	</g>
	<rect x="-41.823" y="10.034" fill="#333333" width="3.486" height="1.487"/>
	<rect x="-41.823" y="7.386" fill="#333333" width="3.486" height="1.488"/>
</g>
<rect x="-54.784" y="8.15" fill="#333333" width="0.738" height="3.416"/>
<rect x="-53.282" y="8.15" fill="#333333" width="0.796" height="3.416"/>
<rect x="-51.782" y="8.15" fill="#333333" width="0.738" height="3.416"/>
</svg>
